<?xml version="1.0" encoding="UTF-8" standalone="no"?>
<!-- Created with Inkscape (http://www.inkscape.org/) -->

<svg
   xmlns:dc="http://purl.org/dc/elements/1.1/"
   xmlns:cc="http://creativecommons.org/ns#"
   xmlns:rdf="http://www.w3.org/1999/02/22-rdf-syntax-ns#"
   xmlns:svg="http://www.w3.org/2000/svg"
   xmlns="http://www.w3.org/2000/svg"
   xmlns:xlink="http://www.w3.org/1999/xlink"
   xmlns:sodipodi="http://sodipodi.sourceforge.net/DTD/sodipodi-0.dtd"
   xmlns:inkscape="http://www.inkscape.org/namespaces/inkscape"
   width="256"
   height="256"
   viewBox="0 0 67.733332 67.733336"
   version="1.1"
   id="svg8"
   inkscape:version="0.92.4 5da689c313, 2019-01-14"
   sodipodi:docname="color-pallet.svg">
  <title
     id="title4659">Color Pallet</title>
  <defs
     id="defs2">
    <linearGradient
       id="linearGradient4962"
       inkscape:collect="always">
      <stop
         id="stop4958"
         offset="0"
         style="stop-color:#ef910b;stop-opacity:1" />
      <stop
         id="stop4960"
         offset="1"
         style="stop-color:#ff8200;stop-opacity:1" />
    </linearGradient>
    <linearGradient
       id="linearGradient4956"
       inkscape:collect="always">
      <stop
         id="stop4952"
         offset="0"
         style="stop-color:#efeb0b;stop-opacity:1" />
      <stop
         id="stop4954"
         offset="1"
         style="stop-color:#ffd900;stop-opacity:1" />
    </linearGradient>
    <linearGradient
       id="linearGradient4950"
       inkscape:collect="always">
      <stop
         id="stop4946"
         offset="0"
         style="stop-color:#3e0bef;stop-opacity:1" />
      <stop
         id="stop4948"
         offset="1"
         style="stop-color:#0061ff;stop-opacity:1" />
    </linearGradient>
    <linearGradient
       inkscape:collect="always"
       id="linearGradient4944">
      <stop
         style="stop-color:#ef0bcd;stop-opacity:1"
         offset="0"
         id="stop4940" />
      <stop
         style="stop-color:#e600ff;stop-opacity:1"
         offset="1"
         id="stop4942" />
    </linearGradient>
    <linearGradient
       inkscape:collect="always"
       id="linearGradient4759">
      <stop
         style="stop-color:#0bef24;stop-opacity:1"
         offset="0"
         id="stop4755" />
      <stop
         style="stop-color:#caff00;stop-opacity:1"
         offset="1"
         id="stop4757" />
    </linearGradient>
    <linearGradient
       id="linearGradient4729"
       inkscape:collect="always">
      <stop
         id="stop4725"
         offset="0"
         style="stop-color:#ef0b12;stop-opacity:1" />
      <stop
         id="stop4727"
         offset="1"
         style="stop-color:#ff0042;stop-opacity:1" />
    </linearGradient>
    <linearGradient
       inkscape:collect="always"
       id="linearGradient4681">
      <stop
         style="stop-color:#0bd7ef;stop-opacity:1"
         offset="0"
         id="stop4677" />
      <stop
         style="stop-color:#009bff;stop-opacity:1"
         offset="1"
         id="stop4679" />
    </linearGradient>
    <linearGradient
       inkscape:collect="always"
       id="linearGradient3850">
      <stop
         style="stop-color:#9c774a;stop-opacity:1"
         offset="0"
         id="stop3846" />
      <stop
         style="stop-color:#e6b982;stop-opacity:1"
         offset="1"
         id="stop3848" />
    </linearGradient>
    <linearGradient
       inkscape:collect="always"
       xlink:href="#linearGradient3850"
       id="linearGradient3852"
       x1="7.1494584"
       y1="273.01254"
       x2="56.624783"
       y2="250.05226"
       gradientUnits="userSpaceOnUse" />
    <radialGradient
       inkscape:collect="always"
       xlink:href="#linearGradient4681"
       id="radialGradient4687"
       gradientUnits="userSpaceOnUse"
       gradientTransform="matrix(0.68560724,0.79229359,-1.0129777,0.74099313,239.50764,47.457162)"
       cx="49.393108"
       cy="253.68021"
       fx="49.393108"
       fy="253.68021"
       r="5.6311102" />
    <radialGradient
       inkscape:collect="always"
       xlink:href="#linearGradient4729"
       id="radialGradient4687-3"
       gradientUnits="userSpaceOnUse"
       gradientTransform="matrix(-0.93922952,0.75490038,-0.87841506,-1.1153575,318.9539,499.52632)"
       cx="49.393108"
       cy="253.68021"
       fx="49.393108"
       fy="253.68021"
       r="5.6311102" />
    <radialGradient
       inkscape:collect="always"
       xlink:href="#linearGradient4759"
       id="radialGradient4687-3-3"
       gradientUnits="userSpaceOnUse"
       gradientTransform="matrix(0.77672525,0.85271897,-1.1476035,0.79750599,262.87656,17.452643)"
       cx="49.393108"
       cy="253.68021"
       fx="49.393108"
       fy="253.68021"
       r="5.6311102" />
    <radialGradient
       inkscape:collect="always"
       xlink:href="#linearGradient4944"
       id="radialGradient4687-3-8"
       gradientUnits="userSpaceOnUse"
       gradientTransform="matrix(-0.57245121,-0.72061844,0.84579074,-0.67395888,-138.68886,487.21233)"
       cx="49.393108"
       cy="253.68021"
       fx="49.393108"
       fy="253.68021"
       r="5.6311102" />
    <radialGradient
       inkscape:collect="always"
       xlink:href="#linearGradient4950"
       id="radialGradient4687-2"
       gradientUnits="userSpaceOnUse"
       gradientTransform="matrix(0.85439532,-0.74055738,-0.98660897,-0.81909454,240.94003,524.00406)"
       cx="49.393108"
       cy="253.68021"
       fx="49.393108"
       fy="253.68021"
       r="5.6311102" />
    <radialGradient
       inkscape:collect="always"
       xlink:href="#linearGradient4962"
       id="radialGradient4687-3-3-2"
       gradientUnits="userSpaceOnUse"
       gradientTransform="matrix(-0.66367577,0.77886937,0.98057408,0.7284381,-184.85615,25.417754)"
       cx="49.393108"
       cy="253.68021"
       fx="49.393108"
       fy="253.68021"
       r="5.6311102" />
    <radialGradient
       inkscape:collect="always"
       xlink:href="#linearGradient4956"
       id="radialGradient4687-2-3"
       gradientUnits="userSpaceOnUse"
       gradientTransform="matrix(0.85715577,-0.69440263,0.80165553,1.0259727,-231.54729,23.562342)"
       cx="49.195301"
       cy="253.89171"
       fx="49.195301"
       fy="253.89171"
       r="5.6311102" />
  </defs>
  <sodipodi:namedview
     id="base"
     pagecolor="#ffffff"
     bordercolor="#666666"
     borderopacity="1.0"
     inkscape:pageopacity="0.0"
     inkscape:pageshadow="2"
     inkscape:zoom="3.959798"
     inkscape:cx="162.42749"
     inkscape:cy="159.48679"
     inkscape:document-units="mm"
     inkscape:current-layer="layer1"
     showgrid="false"
     units="px"
     inkscape:window-width="2560"
     inkscape:window-height="1369"
     inkscape:window-x="0"
     inkscape:window-y="0"
     inkscape:window-maximized="1"
     showguides="true"
     inkscape:snap-global="false">
    <inkscape:grid
       type="xygrid"
       id="grid4689" />
  </sodipodi:namedview>
  <metadata
     id="metadata5">
    <rdf:RDF>
      <cc:Work
         rdf:about="">
        <dc:format>image/svg+xml</dc:format>
        <dc:type
           rdf:resource="http://purl.org/dc/dcmitype/StillImage" />
        <dc:title>Color Pallet</dc:title>
        <cc:license
           rdf:resource="http://creativecommons.org/licenses/by-sa/4.0/" />
      </cc:Work>
      <cc:License
         rdf:about="http://creativecommons.org/licenses/by-sa/4.0/">
        <cc:permits
           rdf:resource="http://creativecommons.org/ns#Reproduction" />
        <cc:permits
           rdf:resource="http://creativecommons.org/ns#Distribution" />
        <cc:requires
           rdf:resource="http://creativecommons.org/ns#Notice" />
        <cc:requires
           rdf:resource="http://creativecommons.org/ns#Attribution" />
        <cc:permits
           rdf:resource="http://creativecommons.org/ns#DerivativeWorks" />
        <cc:requires
           rdf:resource="http://creativecommons.org/ns#ShareAlike" />
      </cc:License>
    </rdf:RDF>
  </metadata>
  <g
     inkscape:label="Layer 1"
     inkscape:groupmode="layer"
     id="layer1"
     transform="translate(0,-229.26665)"
     style="display:inline">
    <path
       style="display:inline;fill:url(#linearGradient3852);fill-opacity:1;stroke:#4f2a00;stroke-width:0.30789462px;stroke-linecap:butt;stroke-linejoin:miter;stroke-opacity:1"
       d="m 3.4514068,254.00081 c 8.2796402,-19.92166 30.6078002,-16.05092 42.9431102,-12.02099 11.653747,3.59121 16.258911,9.63966 16.010827,19.27054 0.01141,2.53989 -3.431847,4.67817 -8.951631,3.31546 -4.36182,-1.07683 -5.707511,4.22899 -4.153701,7.2352 1.738134,3.36282 4.95952,0.47299 8.351141,0.60944 5.088874,0.20473 4.203479,3.10689 3.448928,8.7382 -4.419973,11.46315 -35.325607,9.74026 -52.5937993,-2.04312 -5.8065479,-5.19187 -9.6545564,-14.74957 -5.0548749,-25.10473 z"
       id="path3719"
       inkscape:connector-curvature="0"
       sodipodi:nodetypes="cccsssccc" />
    <g
       transform="translate(1.0394345,0.68554903)"
       style="display:inline"
       id="g4996">
      <path
         d="m 32.673721,278.45665 c 1.406973,0.37035 2.107243,1.93523 1.706678,3.27972 -0.505709,1.69742 -2.415691,2.5311 -4.053634,2.00457 -1.988233,-0.63915 -2.956014,-2.89659 -2.302445,-4.82754 0.771479,-2.27932 3.377752,-3.3816 5.601447,-2.60033 2.570585,0.90313 3.807609,3.85909 2.898213,6.37535 -1.034344,2.86198 -4.340567,4.23393 -7.149262,3.1961 -3.153471,-1.16524 -4.660479,-4.82213 -3.493979,-7.92317 1.2959,-3.44504 5.30376,-5.08719 8.697075,-3.79186 2.95511,1.12805 4.805485,4.17548 4.57586,7.3104"
         sodipodi:t0="0.30844146"
         sodipodi:argument="-19.892962"
         sodipodi:radius="7.4719019"
         sodipodi:revolution="3.1856449"
         sodipodi:expansion="1"
         sodipodi:cy="280.5629"
         sodipodi:cx="31.738255"
         id="path3752"
         style="fill:none;fill-rule:evenodd;stroke:#000000;stroke-width:0.26458332"
         sodipodi:type="spiral" />
      <path
         sodipodi:nodetypes="ccccccc"
         inkscape:connector-curvature="0"
         id="path4675-59"
         d="m 31.023301,284.67901 c -4.709231,0.11113 -2.230476,-2.11509 -2.1875,-4.08432 0.05976,-1.68108 -5.35427,-1.62232 -1.616859,-3.84952 1.787924,-0.57164 1.479085,-2.22912 5.522921,-1.72874 1.754358,0.49207 4.571333,-0.93193 4.879771,2.16743 -0.521016,1.68219 0.01848,1.75731 -0.05345,4.95556 -1.091957,1.95144 -4.335562,4.00868 -6.544889,2.53959 z"
         style="fill:url(#radialGradient4687-2);fill-opacity:1;stroke:none;stroke-width:0.27812076px;stroke-linecap:butt;stroke-linejoin:miter;stroke-opacity:1" />
    </g>
    <g
       transform="translate(1.0394345,0.68554903)"
       style="display:inline"
       id="g4992">
      <path
         d="m 17.418367,276.05772 c -0.566317,1.16823 -2.053026,1.52476 -3.166838,0.94575 -1.386333,-0.72066 -1.80027,-2.51149 -1.073265,-3.84686 0.873767,-1.60495 2.97041,-2.07647 4.5269,-1.20078 1.823896,1.02614 2.3531,3.4296 1.328279,5.20693 -1.178045,2.04307 -3.888983,2.63003 -5.886962,1.45579 -2.262392,-1.32964 -2.907169,-4.3485 -1.583294,-6.56699 1.481022,-2.48184 4.808115,-3.18446 7.247025,-1.7108 2.701358,1.63224 3.461871,5.2678 1.838308,7.92705 -1.172522,1.92049 -3.374278,3.03527 -5.612796,2.90907"
         sodipodi:t0="0.32859591"
         sodipodi:argument="-18.643232"
         sodipodi:radius="6.32864"
         sodipodi:revolution="3.2339516"
         sodipodi:expansion="1"
         sodipodi:cy="274.88342"
         sodipodi:cx="15.702085"
         id="path3750"
         style="fill:none;fill-rule:evenodd;stroke:#000000;stroke-width:0.26458332"
         sodipodi:type="spiral" />
      <path
         sodipodi:nodetypes="ccccccc"
         inkscape:connector-curvature="0"
         id="path4675"
         d="m 16.060999,270.1751 c -4.42464,-0.11316 -4.338698,1.28856 -4.298319,3.2933 0.05615,1.71137 -3.1175375,2.14563 0.394012,4.41298 1.679875,0.58195 1.752541,1.99138 5.551998,1.48199 1.648337,-0.50094 4.295074,0.94872 4.584873,-2.2065 -0.489531,-1.71252 -1.401007,-1.88164 -1.468591,-5.13754 -0.992982,-1.21458 -2.688162,-3.33979 -4.763973,-1.84423 z"
         style="fill:url(#radialGradient4687);fill-opacity:1;stroke:none;stroke-width:0.27200487px;stroke-linecap:butt;stroke-linejoin:miter;stroke-opacity:1" />
    </g>
    <g
       transform="translate(1.0394345,0.68554903)"
       style="display:inline"
       id="g4976">
      <path
         d="m 48.872813,257.06411 c -1.722541,0.31912 -3.299223,-1.01134 -3.56099,-2.68487 -0.325834,-2.08312 1.289274,-3.96555 3.322073,-4.24371 2.443271,-0.33433 4.63298,1.56714 4.926432,3.95928 0.343877,2.80319 -1.844964,5.30111 -4.596485,5.60915 -3.16299,0.35411 -5.969711,-2.12275 -6.291875,-5.23369 -0.364805,-3.52271 2.400524,-6.63865 5.870898,-6.9746 3.882372,-0.37583 7.307832,2.67828 7.657316,6.50811 0.280628,3.07526 -1.423612,6.05658 -4.15002,7.47228"
         sodipodi:t0="0.35410094"
         sodipodi:argument="-17.704689"
         sodipodi:radius="7.9242711"
         sodipodi:revolution="3"
         sodipodi:expansion="1"
         sodipodi:cy="254.25978"
         sodipodi:cx="48.776112"
         id="path3742"
         style="fill:none;fill-opacity:1;fill-rule:evenodd;stroke:#000000;stroke-width:0.26458332"
         sodipodi:type="spiral" />
      <path
         style="fill:url(#radialGradient4687-3);fill-opacity:1;stroke:none;stroke-width:0.31076109px;stroke-linecap:butt;stroke-linejoin:miter;stroke-opacity:1"
         d="m 54.659068,252.88132 c 0.134109,-4.87183 -1.674939,-4.67219 -4.444943,-4.15916 -2.028758,0.0619 -1.64465,-2.76996 -4.332487,1.0965 -0.689868,1.84966 -2.446307,-0.0583 -1.842437,4.12514 1.916084,1.38292 -1.491859,3.94026 3.343393,5.19382 3.150987,0 3.530317,1.33561 6.004709,-1.0585 1.439853,-1.09335 3.264929,-1.85752 1.271765,-5.1978 z"
         id="path4675-5"
         inkscape:connector-curvature="0"
         sodipodi:nodetypes="ccccccc" />
    </g>
    <g
       transform="translate(1.0394345,0.68554903)"
       style="display:inline"
       id="g5000">
      <path
         d="m 48.651798,278.95336 c 1.363413,0.10002 2.293196,1.41397 2.160936,2.73017 -0.163978,1.63185 -1.747613,2.7337 -3.333114,2.54463 -1.900306,-0.22661 -3.174989,-2.08141 -2.928317,-3.93606 0.288455,-2.1688 2.4153,-3.61679 4.538999,-3.31201 2.437331,0.34979 4.058931,2.74926 3.695698,5.14195 -0.41078,2.70589 -3.083263,4.50131 -5.744884,4.07938 -2.974476,-0.47152 -4.943886,-3.4173 -4.46308,-6.34782 0.454802,-2.77203 2.915578,-4.83076 5.699884,-4.92949"
         sodipodi:t0="0.35573676"
         sodipodi:argument="-20.745586"
         sodipodi:radius="6.1741853"
         sodipodi:revolution="3.0544071"
         sodipodi:expansion="1"
         sodipodi:cy="281.09744"
         sodipodi:cx="48.175335"
         id="path3754"
         style="fill:none;fill-rule:evenodd;stroke:#000000;stroke-width:0.26458332"
         sodipodi:type="spiral" />
      <path
         style="fill:url(#radialGradient4687-3-8);fill-opacity:1;stroke:none;stroke-width:0.23703793px;stroke-linecap:butt;stroke-linejoin:miter;stroke-opacity:1"
         d="m 48.69086,285.4189 c 3.694379,0.1029 3.197514,-2.27034 2.808473,-4.39561 -0.04691,-1.55656 2.100498,-1.26185 -0.831488,-3.32408 -1.402623,-0.5293 0.751779,-3.14487 -2.420557,-2.68155 -1.048683,1.4701 -3.695544,0.12333 -4.64614,3.83315 0,2.41758 -1.01281,2.70862 0.802675,4.60708 0.8291,1.10472 1.754057,3.49026 4.287037,1.96101 z"
         id="path4675-5-20"
         inkscape:connector-curvature="0"
         sodipodi:nodetypes="ccccccc" />
    </g>
    <g
       transform="translate(1.0394345,0.68554903)"
       style="display:inline"
       id="g4984">
      <path
         d="m 16.192614,248.54098 c 1.046747,0.69808 1.164001,2.17746 0.455801,3.15729 -0.909665,1.25856 -2.733186,1.38391 -3.931253,0.47262 -1.471521,-1.11928 -1.604776,-3.28977 -0.489452,-4.70522 1.327849,-1.68515 3.846883,-1.82621 5.479184,-0.50627 1.899222,1.53578 2.048031,4.40433 0.523102,6.25315 -1.743304,2.11357 -4.96201,2.2701 -7.027115,0.53992 -2.3281379,-1.95055 -2.4923635,-5.51985 -0.556752,-7.80108 2.1576,-2.54284 6.07783,-2.71476 8.575046,-0.57357 1.056992,0.90629 1.794741,2.15487 2.093568,3.51364"
         sodipodi:t0="0.29918629"
         sodipodi:argument="-19.013033"
         sodipodi:radius="6.5688658"
         sodipodi:revolution="3"
         sodipodi:expansion="1"
         sodipodi:cy="249.96054"
         sodipodi:cx="14.833458"
         id="path3746"
         style="fill:none;fill-rule:evenodd;stroke:#000000;stroke-width:0.26458332"
         sodipodi:type="spiral" />
      <path
         sodipodi:nodetypes="ccccccc"
         inkscape:connector-curvature="0"
         id="path4675-59-2"
         d="m 10.939287,248.45807 c -0.12239,4.4814 -2.3857195,5.2448 2.45259,4.73144 1.85148,-0.0569 3.47885,3.58275 5.93181,0.0261 0.62959,-1.70142 -2.09782,-3.85389 1.03635,-6.42642 -0.54195,-1.66948 -2.87148,1.29585 -3.40294,-3.06091 -1.85271,0.49581 -0.52378,1.4426 -4.04623,1.51105 -1.31403,1.00572 -3.5895895,1.11625 -1.97158,3.21869 z"
         style="fill:url(#radialGradient4687-2-3);fill-opacity:1;stroke:none;stroke-width:0.28472885px;stroke-linecap:butt;stroke-linejoin:miter;stroke-opacity:1" />
    </g>
    <g
       transform="translate(1.0394345,0.68554903)"
       style="display:inline"
       id="g4980">
      <path
         d="m 33.627238,249.59442 c -0.23883,1.47968 -1.771648,2.35669 -3.191224,2.08157 -1.787648,-0.34644 -2.834799,-2.21556 -2.461669,-3.94517 0.45213,-2.0958 2.659816,-3.31399 4.699118,-2.84175 2.404108,0.55671 3.793873,3.10426 3.221847,5.45306 -0.660609,2.71253 -3.548847,4.27421 -6.207013,3.60194 -3.021031,-0.76404 -4.754854,-3.99353 -3.982024,-6.96096 0.867151,-3.3296 4.438269,-5.23574 7.714906,-4.36212 3.638216,0.97003 5.716789,4.88307 4.742203,8.46886 -0.01501,0.0552 -0.03068,0.11027 -0.04702,0.16512"
         sodipodi:t0="0.33206299"
         sodipodi:argument="-18.50716"
         sodipodi:radius="7.1644311"
         sodipodi:revolution="3"
         sodipodi:expansion="1"
         sodipodi:cy="248.84955"
         sodipodi:cx="31.367809"
         id="path3744"
         style="fill:none;fill-rule:evenodd;stroke:#000000;stroke-width:0.26458332"
         sodipodi:type="spiral" />
      <path
         style="fill:url(#radialGradient4687-3-3-2);fill-opacity:1;stroke:none;stroke-width:0.26534215px;stroke-linecap:butt;stroke-linejoin:miter;stroke-opacity:1"
         d="m 32.455925,244.46987 c 2.298732,1.25895 3.635121,1.50708 3.184083,3.80415 -0.05438,1.68237 2.435229,1.36385 -0.963992,3.59277 -1.626141,0.57209 0.92529,1.8869 -2.752577,1.38613 -1.2158,-1.58894 -4.338172,1.37889 -5.440253,-2.63081 0,-2.61301 1.92047,-3.23468 1.308563,-4.76688 -0.599366,-1.62453 3.787779,-3.78872 4.664176,-1.38536 z"
         id="path4675-5-2-7"
         inkscape:connector-curvature="0"
         sodipodi:nodetypes="ccccccc" />
    </g>
    <g
       transform="translate(1.0394345,0.68554903)"
       style="display:inline"
       id="g4988">
      <path
         d="m 11.815117,262.89981 c -0.295309,1.33631 -1.729895,2.06988 -3.0154281,1.74998 -1.5907589,-0.39584 -2.4552165,-2.11947 -2.0415472,-3.66128 0.4951265,-1.84541 2.5093122,-2.84129 4.3071443,-2.33311 2.100213,0.59365 3.227829,2.89931 2.624665,4.95301 -0.691693,2.35511 -3.289419,3.61469 -5.5988607,2.91622 -2.6101006,-0.78941 -4.0017925,-3.67961 -3.2077825,-6.24472 0.8868819,-2.86514 4.0698554,-4.38906 6.8905762,-3.49934 0.945308,0.29817 1.805491,0.84448 2.482224,1.56819"
         sodipodi:t0="0.37495083"
         sodipodi:argument="-19.108011"
         sodipodi:radius="5.8727379"
         sodipodi:revolution="2.9301074"
         sodipodi:expansion="1"
         sodipodi:cy="262.12131"
         sodipodi:cx="9.7553377"
         id="path3748"
         style="fill:none;fill-rule:evenodd;stroke:#000000;stroke-width:0.26458332"
         sodipodi:type="spiral" />
      <path
         style="display:inline;fill:url(#radialGradient4687-3-3);fill-opacity:1;stroke:none;stroke-width:0.30035344px;stroke-linecap:butt;stroke-linejoin:miter;stroke-opacity:1"
         d="m 8.5479014,257.27449 c -2.690294,1.37832 -4.254322,1.64997 -3.726455,4.16484 0.06364,1.84189 -2.850041,1.49317 1.128197,3.93343 1.903135,0.62633 -1.082902,2.06581 3.221447,1.51756 1.4228966,-1.7396 5.0771286,1.50963 6.3669356,-2.88026 0,-2.86076 -2.247599,-3.54138 -1.531461,-5.21886 0.701461,-1.77856 -4.4329826,-4.14795 -5.4586636,-1.51671 z"
         id="path4675-5-2"
         inkscape:connector-curvature="0"
         sodipodi:nodetypes="ccccccc" />
    </g>
  </g>
</svg>
